<?xml version="1.0" standalone="no"?><!DOCTYPE svg PUBLIC "-//W3C//DTD SVG 1.1//EN" "http://www.w3.org/Graphics/SVG/1.1/DTD/svg11.dtd"><svg class="icon" width="200px" height="200.00px" viewBox="0 0 1024 1024" version="1.1" xmlns="http://www.w3.org/2000/svg"><path d="M787 956H237c-93.34 0-169-75.66-169-169V237c0-93.34 75.66-169 169-169h550c93.34 0 169 75.66 169 169v550c0 93.34-75.66 169-169 169z" fill="#1E1E1E" /><path d="M779.21 427.25c-4.53-53.01-47.34-94.63-100.45-97.67l-86.16-4.94c-53.69-3.08-107.51-3.08-161.2 0l-86.16 4.94c-53.12 3.04-95.92 44.66-100.45 97.67-6.82 79.83-6.82 160.11 0 239.94 4.53 53.01 47.34 94.63 100.45 97.67l86.16 4.94c53.69 3.08 107.51 3.08 161.2 0l86.16-4.94c53.12-3.04 95.92-44.66 100.45-97.67 6.83-79.84 6.83-160.11 0-239.94zM730.4 638.03l-2.94 32.91c-2.15 24.07-21.65 42.9-45.78 44.22l-106.21 5.82c-42.28 2.32-84.65 2.32-126.93 0l-106.21-5.82c-24.13-1.32-43.62-20.16-45.78-44.22l-2.94-32.91a1018.34 1018.34 0 0 1 0-181.63l2.94-32.91c2.15-24.07 21.65-42.9 45.78-44.22l106.21-5.82c42.28-2.32 84.65-2.32 126.93 0l106.21 5.82c24.13 1.32 43.62 20.16 45.78 44.22l2.94 32.91a1018.34 1018.34 0 0 1 0 181.63z" fill="#FFBE68" /><path d="M457.3 358.7l-0.54 0.35c-13.03 8.46-30.45 4.76-38.91-8.27l-35.78-55.09c-8.46-13.03-4.76-30.45 8.27-38.91l0.54-0.35c13.03-8.46 30.45-4.76 38.91 8.27l35.78 55.09c8.46 13.03 4.76 30.45-8.27 38.91zM566.7 358.7l0.54 0.35c13.03 8.46 30.45 4.76 38.91-8.27l35.78-55.09c8.46-13.03 4.76-30.45-8.27-38.91l-0.54-0.35c-13.03-8.46-30.45-4.76-38.91 8.27l-35.78 55.09c-8.46 13.03-4.76 30.45 8.27 38.91zM462.58 478.24l0.17 0.46c4.06 11.15-1.69 23.48-12.84 27.54l-95.03 34.59c-11.15 4.06-23.48-1.69-27.54-12.84l-0.17-0.46c-4.06-11.15 1.69-23.48 12.84-27.54l95.03-34.59c11.15-4.06 23.48 1.69 27.54 12.84zM561.42 478.24l-0.17 0.46c-4.06 11.15 1.69 23.48 12.84 27.54l95.03 34.59c11.15 4.06 23.48-1.69 27.54-12.84l0.17-0.46c4.06-11.15-1.69-23.48-12.84-27.54l-95.03-34.59c-11.15-4.06-23.48 1.69-27.54 12.84z" fill="#FFBE68" /><path d="M551.84 622.3c-13.4 0-29.67-7.04-40.78-25.57-11.11 18.53-27.38 25.57-40.78 25.57-20.9 0-38.12-20.24-42.83-50.37-0.7-4.47 2.36-8.66 6.83-9.36 4.47-0.7 8.66 2.36 9.36 6.83 3.31 21.16 14.52 36.52 26.65 36.52 11.22 0 25.77-8.4 32.95-31.96a8.185 8.185 0 1 1 15.66 0c7.18 23.57 21.72 31.96 32.95 31.96 12.13 0 23.34-15.36 26.65-36.52 0.7-4.47 4.89-7.53 9.36-6.83 4.47 0.7 7.52 4.89 6.83 9.36-4.73 30.13-21.94 50.37-42.85 50.37z" fill="#FFBE68" /></svg>